<?xml version="1.0" standalone="no"?>
<!DOCTYPE svg PUBLIC "-//W3C//DTD SVG 20010904//EN"
 "http://www.w3.org/TR/2001/REC-SVG-20010904/DTD/svg10.dtd">
<svg version="1.0" xmlns="http://www.w3.org/2000/svg"
 width="674.000000pt" height="674.000000pt" viewBox="0 0 674.000000 674.000000"
 preserveAspectRatio="xMidYMid meet">
<metadata>
Created by potrace 1.14, written by Peter Selinger 2001-2017
</metadata>
<g transform="translate(0.000000,674.000000) scale(0.100000,-0.100000)"
fill="#000000" stroke="none">
<path d="M2940 6265 c0 -6 -12 -12 -27 -13 -15 -1 -30 -8 -35 -15 -6 -9 -8 -8
-8 3 0 12 -2 13 -9 1 -5 -7 -13 -11 -19 -7 -6 3 -13 2 -17 -3 -3 -5 -14 -8
-25 -6 -11 2 -20 -2 -20 -8 0 -7 -4 -6 -10 3 -7 11 -10 11 -10 2 0 -7 -4 -10
-10 -7 -5 3 -10 1 -10 -4 0 -6 -3 -10 -7 -10 -22 4 -33 -3 -33 -18 0 -14 -2
-15 -9 -4 -7 11 -11 10 -20 -5 -6 -11 -11 -15 -11 -11 0 5 -14 -5 -31 -22 -17
-17 -34 -29 -39 -26 -5 3 -11 -3 -14 -12 -3 -10 -16 -23 -28 -28 -13 -6 -22
-17 -20 -24 1 -7 -1 -10 -6 -7 -5 3 -16 -4 -25 -15 -9 -10 -13 -19 -9 -19 4 0
1 -4 -6 -9 -7 -4 -14 -14 -15 -22 -2 -8 -10 -25 -19 -38 -10 -13 -15 -28 -13
-32 3 -4 -1 -9 -8 -12 -7 -2 -13 -17 -15 -32 -1 -16 -8 -35 -15 -43 -10 -13
-9 -14 2 -7 10 6 12 4 5 -6 -4 -8 -9 -41 -10 -74 -1 -33 -3 -64 -4 -70 -1 -5
-1 -12 0 -15 7 -20 7 -40 -1 -40 -6 0 -7 -5 -3 -11 8 -13 9 -97 2 -104 -3 -3
-3 -24 -1 -46 3 -30 1 -39 -8 -33 -8 5 -9 3 -3 -7 10 -17 11 -47 2 -76 -4 -13
-3 -23 2 -23 6 0 6 -10 0 -26 -7 -19 -7 -23 2 -18 8 5 9 2 5 -9 -3 -9 -2 -19
3 -22 5 -3 7 -12 3 -20 -3 -9 1 -15 8 -15 11 0 11 -3 -1 -10 -8 -5 -10 -10 -4
-10 6 0 11 -6 12 -12 3 -26 11 -64 20 -95 6 -17 8 -34 4 -37 -3 -3 1 -6 9 -6
11 0 11 -2 -1 -10 -8 -5 -10 -10 -4 -10 6 0 14 -19 17 -42 11 -81 19 -113 29
-119 6 -4 8 -11 4 -17 -3 -6 0 -16 7 -24 15 -14 17 -20 17 -44 0 -8 5 -12 10
-9 6 3 10 -3 10 -14 0 -12 5 -21 10 -21 6 0 10 -7 10 -15 0 -8 5 -15 10 -15 6
0 15 -12 20 -26 6 -14 14 -22 20 -19 5 3 10 -3 10 -14 0 -12 5 -21 10 -21 6 0
10 -8 10 -18 0 -10 6 -24 13 -31 10 -11 9 -12 -2 -6 -10 6 -12 4 -5 -6 11 -18
12 -69 0 -69 -4 0 -5 -7 -2 -16 3 -8 2 -12 -4 -9 -5 3 -9 -3 -9 -12 -2 -62 -8
-89 -20 -97 -11 -7 -11 -10 0 -17 11 -7 10 -9 -5 -9 -11 0 -27 -7 -37 -16 -9
-8 -26 -16 -38 -17 -11 -1 -23 -7 -26 -15 -3 -7 -9 -10 -15 -7 -5 3 -10 1 -10
-5 0 -6 -4 -8 -10 -5 -5 3 -10 1 -10 -4 0 -6 -3 -10 -7 -9 -5 0 -25 -6 -45
-16 -21 -9 -40 -16 -43 -16 -3 0 -34 -15 -69 -34 -35 -19 -67 -32 -70 -29 -3
4 -6 1 -6 -5 0 -7 -7 -12 -15 -12 -8 0 -15 -5 -15 -11 0 -5 -4 -7 -10 -4 -5 3
-10 1 -10 -5 0 -6 -4 -8 -10 -5 -5 3 -10 1 -10 -5 0 -6 -4 -8 -10 -5 -5 3 -10
1 -10 -5 0 -6 -5 -8 -10 -5 -6 3 -17 -1 -26 -9 -9 -9 -20 -14 -25 -11 -5 4 -9
2 -9 -4 0 -6 -16 -13 -35 -17 -19 -3 -35 -11 -35 -17 0 -6 -3 -8 -6 -4 -4 3
-19 0 -35 -9 -16 -8 -29 -11 -29 -7 0 5 -7 0 -14 -10 -9 -11 -17 -14 -21 -8
-6 11 -14 7 -63 -39 -39 -37 -59 -85 -72 -170 -7 -41 -14 -82 -17 -90 -3 -8
-7 -31 -9 -50 -2 -19 -6 -48 -9 -65 -3 -16 -8 -57 -10 -90 -2 -33 -4 -62 -5
-65 -1 -3 -1 -15 -1 -27 1 -11 -3 -24 -9 -28 -5 -3 -8 -11 -4 -16 9 -15 12
-59 4 -59 -3 0 -7 -12 -7 -27 -1 -46 -12 -123 -18 -133 -3 -6 0 -10 7 -10 10
0 10 -2 -1 -9 -7 -5 -10 -14 -7 -20 4 -6 4 -11 -1 -11 -4 0 -8 -15 -7 -32 0
-18 -2 -37 -5 -43 -3 -5 -6 -18 -7 -27 -1 -10 -2 -19 -4 -20 -2 -3 -8 -47 -13
-93 -2 -11 -6 -26 -10 -32 -5 -7 -5 -13 0 -13 4 0 1 -5 -7 -10 -11 -7 -11 -10
-2 -10 7 0 11 -3 9 -7 -3 -5 -8 -24 -11 -43 -3 -19 -10 -51 -14 -70 -5 -19 -8
-45 -7 -57 1 -13 -2 -23 -7 -23 -4 0 -7 -3 -7 -7 1 -5 0 -10 -1 -13 -2 -6 -10
-89 -11 -112 0 -10 -4 -18 -9 -18 -5 0 -7 -9 -5 -20 2 -11 -1 -20 -6 -20 -6 0
-7 -4 -4 -10 3 -5 1 -19 -6 -31 -9 -17 -8 -20 3 -13 10 6 11 5 2 -7 -7 -8 -18
-41 -25 -74 -7 -33 -14 -67 -16 -75 -2 -8 -5 -28 -8 -45 -4 -28 -8 -47 -20
-105 -7 -36 -15 -98 -20 -155 -4 -48 -9 -83 -22 -150 -3 -16 -6 -43 -6 -60 0
-16 -5 -33 -11 -37 -7 -5 -7 -8 2 -8 10 0 10 -5 1 -22 -7 -13 -12 -24 -11 -25
1 -2 2 -4 1 -5 0 -2 -2 -21 -4 -43 -1 -22 -6 -48 -10 -57 -5 -12 -3 -18 6 -18
11 0 11 -3 -1 -10 -11 -7 -11 -10 -2 -10 8 0 10 -5 5 -12 -4 -7 -8 -24 -9 -38
-2 -40 -15 -123 -20 -131 -2 -4 0 -11 6 -14 7 -4 7 -11 2 -18 -5 -7 -8 -31 -8
-54 1 -24 -1 -43 -4 -43 -3 0 -5 -27 -5 -61 0 -33 -3 -63 -8 -66 -4 -2 -3 -12
3 -22 5 -10 6 -21 3 -25 -4 -4 -8 -39 -9 -79 -1 -40 -4 -91 -8 -114 -25 -172
-30 -255 -28 -483 1 -124 3 -234 6 -245 2 -11 -1 -25 -6 -32 -7 -9 53 -12 257
-13 l265 -1 9 23 c5 13 6 29 4 36 -3 6 0 12 7 12 10 0 10 3 0 15 -8 9 -8 15
-2 15 6 0 11 8 10 17 0 10 2 32 5 48 9 49 16 97 21 145 3 25 7 52 10 60 3 8 8
33 11 55 3 22 11 44 17 50 8 7 9 6 4 -2 -4 -7 -3 -13 1 -13 5 0 9 -9 9 -19 0
-11 -5 -17 -11 -13 -5 3 -5 -1 2 -9 7 -9 8 -20 3 -29 -5 -8 -5 -21 0 -30 5 -9
5 -22 0 -30 -6 -9 -5 -17 3 -22 9 -6 9 -8 -1 -8 -9 0 -10 -5 -3 -19 6 -10 7
-21 4 -25 -12 -12 -11 -56 1 -56 8 0 8 -2 0 -8 -14 -9 -13 -85 1 -94 6 -5 6
-8 -2 -8 -7 0 -11 -17 -11 -45 l0 -45 1469 0 c953 0 1468 4 1464 10 -3 5 0 7
8 4 8 -3 20 2 27 11 10 12 16 13 26 4 10 -8 14 -8 14 0 0 14 58 44 70 36 6 -4
13 1 16 10 4 8 14 14 23 13 9 -2 15 3 14 10 -2 6 1 12 6 12 4 0 6 12 4 28 -2
15 -5 38 -6 52 -1 14 -6 28 -10 31 -4 3 -9 16 -10 27 -1 12 -4 22 -7 22 -4 0
-7 6 -8 13 -2 28 -9 46 -22 63 -13 16 -13 17 0 9 13 -8 13 -7 1 8 -7 9 -10 17
-6 17 4 0 2 7 -5 15 -6 8 -9 19 -6 24 4 5 2 12 -4 16 -6 4 -8 11 -5 16 4 5 1
9 -6 9 -8 0 -8 4 1 15 10 12 10 15 0 15 -10 0 -10 3 0 15 6 8 9 19 5 25 -3 5
-1 10 5 10 6 0 9 4 6 9 -3 5 3 37 14 72 11 34 22 72 25 83 2 12 8 36 14 54 5
17 7 32 4 32 -3 0 -1 6 5 13 6 6 11 15 11 20 4 44 15 87 22 87 5 0 6 6 3 14
-3 8 0 17 5 21 6 3 9 10 7 14 -3 4 0 25 5 47 9 38 13 55 25 104 9 42 12 55 14
58 6 6 22 108 25 152 1 19 6 42 9 51 4 9 6 20 5 25 -1 5 0 11 1 14 1 3 3 30 5
60 2 30 4 55 5 55 2 0 6 55 11 167 2 31 7 54 12 51 5 -3 4 3 -1 14 -6 11 -7
25 -2 33 5 9 5 19 -2 27 -6 8 -7 13 -1 13 13 0 11 43 -2 52 -7 5 -6 8 0 8 6 0
11 9 12 20 1 11 -3 20 -9 20 -7 0 -6 5 1 14 8 10 9 16 1 21 -7 4 -7 12 0 25 7
13 7 21 -1 26 -8 4 -7 9 2 15 8 5 9 9 4 9 -10 0 -15 42 -18 147 0 24 -4 43 -7
43 -4 0 -7 15 -7 32 -2 86 -6 128 -12 128 -3 0 -6 26 -6 58 0 31 -2 61 -4 65
-2 5 -5 34 -7 65 -3 32 -6 75 -9 97 -2 22 -4 53 -4 68 -1 18 -5 26 -12 21 -8
-5 -8 -1 0 13 6 11 7 23 4 27 -4 4 -9 30 -11 59 -2 28 -9 58 -15 66 -9 12 -9
13 1 7 6 -4 12 -3 12 3 0 5 -4 12 -9 15 -4 3 -6 18 -3 32 4 21 2 25 -9 19 -11
-6 -11 -5 -2 5 9 9 9 19 2 32 -6 11 -8 22 -5 25 3 4 0 13 -7 21 -10 13 -9 15
3 8 13 -7 13 -6 0 6 -9 8 -14 26 -12 47 2 20 -2 37 -10 42 -7 5 -8 9 -2 9 11
0 12 35 1 46 -4 4 -7 22 -7 40 0 18 -5 36 -10 39 -7 4 -7 12 0 25 7 13 6 20
-3 23 -8 4 -7 6 3 7 10 0 6 6 -10 16 -14 8 -17 13 -8 10 12 -3 15 -1 11 9 -3
8 -10 12 -15 9 -6 -4 -5 3 1 15 8 14 8 21 1 21 -5 0 -10 11 -10 24 0 14 -4 28
-10 31 -5 3 -10 15 -10 26 0 12 -4 17 -11 13 -7 -4 -9 0 -5 14 4 11 2 23 -4
27 -6 3 -8 11 -5 16 4 5 1 9 -5 9 -6 0 -9 4 -5 9 3 5 1 12 -5 16 -6 4 -8 11
-5 16 4 5 1 9 -5 9 -6 0 -8 5 -5 10 4 6 0 21 -8 34 -19 28 -47 122 -40 130 4
3 2 6 -4 6 -5 0 -10 6 -11 13 -2 31 -13 61 -24 69 -10 6 -9 8 2 8 9 0 11 3 5
8 -5 4 -11 21 -13 37 -2 17 -4 38 -5 48 -1 9 -5 17 -9 17 -4 0 -5 9 -3 20 2
11 0 20 -6 20 -5 0 -9 13 -9 29 0 18 -8 35 -22 45 -13 9 -17 14 -10 10 11 -5
11 -2 0 15 -7 12 -16 21 -20 21 -5 0 -8 5 -8 11 0 12 -58 69 -70 69 -5 0 -11
6 -13 13 -4 9 -6 9 -6 -1 -1 -10 -5 -10 -17 2 -18 18 -39 22 -28 5 5 -8 1 -8
-13 0 -11 6 -23 7 -27 4 -3 -3 -6 -1 -6 6 0 9 -9 12 -25 9 -14 -3 -28 -2 -30
2 -3 5 -16 7 -30 5 -14 -1 -25 2 -25 7 0 5 -9 4 -19 -2 -14 -7 -22 -7 -26 0
-5 8 -11 7 -21 -1 -11 -9 -14 -9 -14 1 0 10 -3 10 -15 0 -12 -10 -15 -10 -15
1 0 9 -3 10 -8 4 -8 -11 -29 -12 -54 -1 -9 4 -22 5 -28 1 -5 -3 -10 -2 -10 4
0 6 -7 8 -15 5 -8 -4 -15 -2 -15 4 0 5 -14 9 -31 8 -16 -1 -32 1 -35 6 -3 5
-10 6 -15 3 -5 -4 -9 -2 -9 2 0 5 -14 10 -32 11 -18 2 -35 7 -39 13 -4 8 -9 7
-14 -1 -5 -9 -9 -9 -14 -1 -4 6 -24 12 -44 13 -20 1 -37 6 -37 11 0 5 -8 3
-17 -4 -11 -10 -14 -10 -9 -1 7 12 -30 18 -91 14 -13 0 -23 4 -23 9 0 6 -9 7
-20 4 -11 -4 -20 -2 -20 4 0 6 -7 8 -15 5 -9 -4 -15 0 -15 7 0 11 -3 11 -10
-1 -7 -11 -10 -11 -10 -2 0 7 -4 11 -9 7 -5 -3 -12 -1 -15 4 -4 5 -25 8 -47 6
-30 -3 -38 -1 -31 8 12 14 -11 40 -24 29 -5 -4 -3 1 4 10 12 14 10 16 -10 10
-20 -5 -21 -4 -9 11 11 14 11 18 -3 23 -9 3 -13 10 -10 15 3 5 -2 9 -11 9 -9
0 -14 4 -11 8 3 5 -4 14 -14 22 -10 8 -17 17 -14 21 2 4 -3 15 -12 23 -8 9
-12 16 -7 16 4 0 1 5 -7 10 -11 7 -15 25 -13 67 2 82 8 137 16 150 4 7 3 14
-3 18 -6 4 -7 12 -3 18 4 6 7 34 7 62 1 42 4 50 19 47 9 -2 17 2 17 8 0 5 7
10 16 10 8 0 12 5 9 10 -3 6 1 10 9 10 10 0 13 7 11 21 -3 15 0 19 10 15 13
-5 20 5 16 27 0 4 4 7 10 7 5 0 15 13 20 30 6 16 15 27 21 24 6 -4 8 2 3 16
-4 13 -3 20 2 17 5 -4 10 0 10 8 0 8 -5 15 -11 15 -6 0 -5 4 3 9 8 5 12 18 8
30 -3 12 -1 21 3 21 5 0 5 14 0 30 -6 21 -5 30 3 30 7 0 6 4 -3 10 -12 8 -12
10 -1 10 11 0 11 3 1 15 -7 8 -9 15 -4 15 5 0 1 5 -9 11 -9 6 -14 16 -11 22 4
7 4 9 -1 5 -4 -4 -16 2 -26 14 -11 11 -19 18 -19 14 0 -4 -6 -1 -14 6 -10 9
-11 17 -4 26 6 6 7 12 2 12 -5 0 -10 21 -12 48 -2 45 -8 87 -12 87 -1 0 -3 19
-5 43 -1 23 2 42 6 42 4 0 5 9 2 20 -3 11 -10 20 -17 20 -6 0 -6 4 3 9 8 5 9
11 3 15 -6 3 -8 15 -5 26 3 12 0 20 -7 20 -9 0 -9 4 1 17 12 14 12 16 0 8 -11
-6 -13 -4 -8 8 3 10 2 17 -3 17 -6 0 -9 3 -8 8 3 15 -15 62 -24 62 -5 0 -6 5
-3 10 3 6 -1 13 -9 16 -9 3 -16 13 -16 21 0 8 -4 11 -10 8 -5 -3 -10 1 -10 9
0 9 -3 15 -7 14 -11 -3 -73 35 -73 44 0 4 -7 8 -15 8 -8 0 -15 3 -15 8 0 9
-62 37 -77 34 -6 -1 -14 2 -18 8 -3 5 -17 10 -31 10 -13 0 -24 4 -24 8 0 5
-17 17 -37 27 -35 16 -50 19 -121 24 -15 1 -21 5 -16 13 5 7 3 8 -7 2 -19 -12
-52 -12 -61 1 -5 7 -8 7 -8 0z m750 -1799 c0 -2 -7 -7 -16 -10 -8 -3 -12 -2
-9 4 6 10 25 14 25 6z"/>
</g>
</svg>
