<svg width="16" height="17" viewBox="0 0 16 17" fill="none" xmlns="http://www.w3.org/2000/svg">
    <path id="logo" fill-rule="evenodd" clip-rule="evenodd"
          d="M12 0.5H8V4.5H4H0V8.5V12.5V16.5H4H8V12.5H12H16V8.5V4.5V0.5H12ZM4 12.5H8V8.5H12V4.5H8V8.5H4V12.5Z"
          fill="white"/>
    <g id="simbol">
        <mask id="path-1-inside-1_1103_3692" fill="white">
            <path fill-rule="evenodd" clip-rule="evenodd"
                  d="M0 39.75H38.75H77.5V78.5H38.75V117.25H77.5V156H38.75H0V117.25V78.5V39.75Z"/>
        </mask>
        <path d="M0 39.75V38.75H-1V39.75H0ZM77.5 39.75H78.5V38.75H77.5V39.75ZM77.5 78.5V79.5H78.5V78.5H77.5ZM38.75 78.5V77.5H37.75V78.5H38.75ZM38.75 117.25H37.75V118.25H38.75V117.25ZM77.5 117.25H78.5V116.25H77.5V117.25ZM77.5 156V157H78.5V156H77.5ZM0 156H-1V157H0V156ZM38.75 38.75H0V40.75H38.75V38.75ZM77.5 38.75H38.75V40.75H77.5V38.75ZM78.5 78.5V39.75H76.5V78.5H78.5ZM38.75 79.5H77.5V77.5H38.75V79.5ZM39.75 117.25V78.5H37.75V117.25H39.75ZM38.75 118.25H77.5V116.25H38.75V118.25ZM76.5 117.25V156H78.5V117.25H76.5ZM77.5 155H38.75V157H77.5V155ZM0 157H38.75V155H0V157ZM-1 117.25V156H1V117.25H-1ZM-1 78.5V117.25H1V78.5H-1ZM-1 39.75V78.5H1V39.75H-1Z"
              fill="#C778DD" mask="url(#path-1-inside-1_1103_3692)"/>
        <mask id="path-3-outside-2_1103_3692" maskUnits="userSpaceOnUse" x="76.5" y="0" width="80" height="119"
              fill="black">
            <rect fill="white" x="76.5" width="80" height="119"/>
            <path fill-rule="evenodd" clip-rule="evenodd"
                  d="M77.5 1H116.25H155V39.75V78.5V117.25H116.25H77.5V78.5H116.25V39.75H77.5V1Z"/>
        </mask>
        <path d="M77.5 1V0H76.5V1H77.5ZM155 1H156V0H155V1ZM155 117.25V118.25H156V117.25H155ZM77.5 117.25H76.5V118.25H77.5V117.25ZM77.5 78.5V77.5H76.5V78.5H77.5ZM116.25 78.5V79.5H117.25V78.5H116.25ZM116.25 39.75H117.25V38.75H116.25V39.75ZM77.5 39.75H76.5V40.75H77.5V39.75ZM116.25 0H77.5V2H116.25V0ZM155 0H116.25V2H155V0ZM156 39.75V1H154V39.75H156ZM156 78.5V39.75H154V78.5H156ZM156 117.25V78.5H154V117.25H156ZM116.25 118.25H155V116.25H116.25V118.25ZM116.25 116.25H77.5V118.25H116.25V116.25ZM78.5 117.25V78.5H76.5V117.25H78.5ZM77.5 79.5H116.25V77.5H77.5V79.5ZM115.25 39.75V78.5H117.25V39.75H115.25ZM77.5 40.75H116.25V38.75H77.5V40.75ZM76.5 1V39.75H78.5V1H76.5Z"
              fill="#C778DD" mask="url(#path-3-outside-2_1103_3692)"/>
    </g>
    <g id="simbol-small">
        <mask id="path-1-inside-1_1103_3640" fill="white">
            <path fill-rule="evenodd" clip-rule="evenodd"
                  d="M57.5 0H85.75H114V28.25V56.5V84.75H85.75H57.5V56.5H85.75V28.25H57.5V0Z"/>
        </mask>
        <path d="M57.5 0V-1H56.5V0H57.5ZM114 0H115V-1H114V0ZM114 84.75V85.75H115V84.75H114ZM57.5 84.75H56.5V85.75H57.5V84.75ZM57.5 56.5V55.5H56.5V56.5H57.5ZM85.75 56.5V57.5H86.75V56.5H85.75ZM85.75 28.25H86.75V27.25H85.75V28.25ZM57.5 28.25H56.5V29.25H57.5V28.25ZM85.75 -1H57.5V1H85.75V-1ZM114 -1H85.75V1H114V-1ZM115 28.25V0H113V28.25H115ZM115 56.5V28.25H113V56.5H115ZM115 84.75V56.5H113V84.75H115ZM85.75 85.75H114V83.75H85.75V85.75ZM85.75 83.75H57.5V85.75H85.75V83.75ZM58.5 84.75V56.5H56.5V84.75H58.5ZM57.5 57.5H85.75V55.5H57.5V57.5ZM84.75 28.25V56.5H86.75V28.25H84.75ZM57.5 29.25H85.75V27.25H57.5V29.25ZM56.5 0V28.25H58.5V0H56.5Z"
              fill="#C778DD" mask="url(#path-1-inside-1_1103_3640)"/>
        <mask id="path-3-outside-2_1103_3640" maskUnits="userSpaceOnUse" x="0" y="27.2501" width="59" height="87"
              fill="black">
            <rect fill="white" y="27.2501" width="59" height="87"/>
            <path fill-rule="evenodd" clip-rule="evenodd"
                  d="M1 28.2501H29.25H57.5V56.5001H29.25V84.7501H57.5V113H29.25H1V84.7501V56.5001V28.2501Z"/>
        </mask>
        <path d="M1 28.2501V27.2501H0V28.2501H1ZM57.5 28.2501H58.5V27.2501H57.5V28.2501ZM57.5 56.5001V57.5001H58.5V56.5001H57.5ZM29.25 56.5001V55.5001H28.25V56.5001H29.25ZM29.25 84.7501H28.25V85.7501H29.25V84.7501ZM57.5 84.7501H58.5V83.7501H57.5V84.7501ZM57.5 113V114H58.5V113H57.5ZM1 113H0V114H1V113ZM29.25 27.2501H1V29.2501H29.25V27.2501ZM57.5 27.2501H29.25V29.2501H57.5V27.2501ZM58.5 56.5001V28.2501H56.5V56.5001H58.5ZM29.25 57.5001H57.5V55.5001H29.25V57.5001ZM30.25 84.7501V56.5001H28.25V84.7501H30.25ZM29.25 85.7501H57.5V83.7501H29.25V85.7501ZM56.5 84.7501V113H58.5V84.7501H56.5ZM57.5 112H29.25V114H57.5V112ZM1 114H29.25V112H1V114ZM0 84.7501V113H2V84.7501H0ZM0 56.5001V84.7501H2V56.5001H0ZM0 28.2501V56.5001H2V28.2501H0Z"
              fill="#C778DD" mask="url(#path-3-outside-2_1103_3640)"/>
    </g>
    <g id="arrow-bottom">
        <line id="Line 14" x1="0.707107" y1="1.29289" x2="5.70711" y2="6.29289" stroke="#ABB2BF" stroke-width="2"/>
        <line id="Line 15" x1="4.29289" y1="6.29289" x2="9.29289" y2="1.29289" stroke="#ABB2BF" stroke-width="2"/>
    </g>
</svg>
