<svg width="16" height="17" viewBox="0 0 16 17" fill="none" xmlns="http://www.w3.org/2000/svg">
    <path id="logo" fill-rule="evenodd" clip-rule="evenodd"
          d="M12 0.5H8V4.5H4H0V8.5V12.5V16.5H4H8V12.5H12H16V8.5V4.5V0.5H12ZM4 12.5H8V8.5H12V4.5H8V8.5H4V12.5Z"
          fill="white"/>
    <g id="simbol">
        <mask id="path-1-inside-1_1103_3692" fill="white">
            <path fill-rule="evenodd" clip-rule="evenodd"
                  d="M0 39.75H38.75H77.5V78.5H38.75V117.25H77.5V156H38.75H0V117.25V78.5V39.75Z"/>
        </mask>
        <path d="M0 39.75V38.75H-1V39.75H0ZM77.5 39.75H78.5V38.75H77.5V39.75ZM77.5 78.5V79.5H78.5V78.5H77.5ZM38.75 78.5V77.5H37.75V78.5H38.75ZM38.75 117.25H37.75V118.25H38.75V117.25ZM77.5 117.25H78.5V116.25H77.5V117.25ZM77.5 156V157H78.5V156H77.5ZM0 156H-1V157H0V156ZM38.75 38.75H0V40.75H38.75V38.75ZM77.5 38.75H38.75V40.75H77.5V38.75ZM78.5 78.5V39.75H76.5V78.5H78.5ZM38.75 79.5H77.5V77.5H38.75V79.5ZM39.75 117.25V78.5H37.75V117.25H39.75ZM38.75 118.25H77.5V116.25H38.75V118.25ZM76.5 117.25V156H78.5V117.25H76.5ZM77.5 155H38.75V157H77.5V155ZM0 157H38.75V155H0V157ZM-1 117.25V156H1V117.25H-1ZM-1 78.5V117.25H1V78.5H-1ZM-1 39.75V78.5H1V39.75H-1Z"
              fill="#C778DD" mask="url(#path-1-inside-1_1103_3692)"/>
        <mask id="path-3-outside-2_1103_3692" maskUnits="userSpaceOnUse" x="76.5" y="0" width="80" height="119"
              fill="black">
            <rect fill="white" x="76.5" width="80" height="119"/>
            <path fill-rule="evenodd" clip-rule="evenodd"
                  d="M77.5 1H116.25H155V39.75V78.5V117.25H116.25H77.5V78.5H116.25V39.75H77.5V1Z"/>
        </mask>
        <path d="M77.5 1V0H76.5V1H77.5ZM155 1H156V0H155V1ZM155 117.25V118.25H156V117.25H155ZM77.5 117.25H76.5V118.25H77.5V117.25ZM77.5 78.5V77.5H76.5V78.5H77.5ZM116.25 78.5V79.5H117.25V78.5H116.25ZM116.25 39.75H117.25V38.75H116.25V39.75ZM77.5 39.75H76.5V40.75H77.5V39.75ZM116.25 0H77.5V2H116.25V0ZM155 0H116.25V2H155V0ZM156 39.75V1H154V39.75H156ZM156 78.5V39.75H154V78.5H156ZM156 117.25V78.5H154V117.25H156ZM116.25 118.25H155V116.25H116.25V118.25ZM116.25 116.25H77.5V118.25H116.25V116.25ZM78.5 117.25V78.5H76.5V117.25H78.5ZM77.5 79.5H116.25V77.5H77.5V79.5ZM115.25 39.75V78.5H117.25V39.75H115.25ZM77.5 40.75H116.25V38.75H77.5V40.75ZM76.5 1V39.75H78.5V1H76.5Z"
              fill="#C778DD" mask="url(#path-3-outside-2_1103_3692)"/>
    </g>
    <g id="simbol-small">
        <mask id="path-1-inside-1_1103_3640" fill="white">
            <path fill-rule="evenodd" clip-rule="evenodd"
                  d="M57.5 0H85.75H114V28.25V56.5V84.75H85.75H57.5V56.5H85.75V28.25H57.5V0Z"/>
        </mask>
        <path d="M57.5 0V-1H56.5V0H57.5ZM114 0H115V-1H114V0ZM114 84.75V85.75H115V84.75H114ZM57.5 84.75H56.5V85.75H57.5V84.75ZM57.5 56.5V55.5H56.5V56.5H57.5ZM85.75 56.5V57.5H86.75V56.5H85.75ZM85.75 28.25H86.75V27.25H85.75V28.25ZM57.5 28.25H56.5V29.25H57.5V28.25ZM85.75 -1H57.5V1H85.75V-1ZM114 -1H85.75V1H114V-1ZM115 28.25V0H113V28.25H115ZM115 56.5V28.25H113V56.5H115ZM115 84.75V56.5H113V84.75H115ZM85.75 85.75H114V83.75H85.75V85.75ZM85.75 83.75H57.5V85.75H85.75V83.75ZM58.5 84.75V56.5H56.5V84.75H58.5ZM57.5 57.5H85.75V55.5H57.5V57.5ZM84.75 28.25V56.5H86.75V28.25H84.75ZM57.5 29.25H85.75V27.25H57.5V29.25ZM56.5 0V28.25H58.5V0H56.5Z"
              fill="#C778DD" mask="url(#path-1-inside-1_1103_3640)"/>
        <mask id="path-3-outside-2_1103_3640" maskUnits="userSpaceOnUse" x="0" y="27.2501" width="59" height="87"
              fill="black">
            <rect fill="white" y="27.2501" width="59" height="87"/>
            <path fill-rule="evenodd" clip-rule="evenodd"
                  d="M1 28.2501H29.25H57.5V56.5001H29.25V84.7501H57.5V113H29.25H1V84.7501V56.5001V28.2501Z"/>
        </mask>
        <path d="M1 28.2501V27.2501H0V28.2501H1ZM57.5 28.2501H58.5V27.2501H57.5V28.2501ZM57.5 56.5001V57.5001H58.5V56.5001H57.5ZM29.25 56.5001V55.5001H28.25V56.5001H29.25ZM29.25 84.7501H28.25V85.7501H29.25V84.7501ZM57.5 84.7501H58.5V83.7501H57.5V84.7501ZM57.5 113V114H58.5V113H57.5ZM1 113H0V114H1V113ZM29.25 27.2501H1V29.2501H29.25V27.2501ZM57.5 27.2501H29.25V29.2501H57.5V27.2501ZM58.5 56.5001V28.2501H56.5V56.5001H58.5ZM29.25 57.5001H57.5V55.5001H29.25V57.5001ZM30.25 84.7501V56.5001H28.25V84.7501H30.25ZM29.25 85.7501H57.5V83.7501H29.25V85.7501ZM56.5 84.7501V113H58.5V84.7501H56.5ZM57.5 112H29.25V114H57.5V112ZM1 114H29.25V112H1V114ZM0 84.7501V113H2V84.7501H0ZM0 56.5001V84.7501H2V56.5001H0ZM0 28.2501V56.5001H2V28.2501H0Z"
              fill="#C778DD" mask="url(#path-3-outside-2_1103_3640)"/>
    </g>
    <g id="arrow-bottom">
        <line id="Line 14" x1="0.707107" y1="1.29289" x2="5.70711" y2="6.29289" stroke="#ABB2BF" stroke-width="2"/>
        <line id="Line 15" x1="4.29289" y1="6.29289" x2="9.29289" y2="1.29289" stroke="#ABB2BF" stroke-width="2"/>
    </g>
    <g id="discord">
        <path d="M24.1641 7.65906C22.543 6.87826 20.8325 6.32099 19.0751 6.00114C19.0592 5.99832 19.0428 6.00076 19.0283 6.0081C19.0137 6.01544 19.0017 6.02733 18.9938 6.04214C18.7735 6.45211 18.5298 6.98835 18.3595 7.40816C16.4651 7.10643 14.5383 7.10643 12.6439 7.40816C12.4539 6.9405 12.239 6.48443 12.0002 6.04214C11.9922 6.02749 11.9801 6.01574 11.9656 6.00842C11.9511 6.0011 11.9348 5.99856 11.9189 6.00114C10.1611 6.31928 8.45021 6.87684 6.82991 7.65906C6.81605 7.66461 6.80445 7.67504 6.7971 7.68858C3.55651 12.7706 2.66745 17.7279 3.10339 22.623C3.10495 22.6459 3.11901 22.6689 3.1362 22.6836C5.02325 24.1507 7.13396 25.2708 9.37832 25.9962C9.39417 26.0014 9.4112 26.0013 9.42693 25.9957C9.44267 25.99 9.45629 25.9793 9.46582 25.965C9.94707 25.2763 10.3752 24.5498 10.7439 23.7856C10.7516 23.7699 10.7543 23.752 10.7514 23.7345C10.7486 23.7171 10.7405 23.7011 10.7283 23.6889C10.7202 23.6809 10.7107 23.6747 10.7002 23.6708C10.027 23.3993 9.37503 23.0731 8.7502 22.6951C8.73275 22.6847 8.71977 22.6677 8.71395 22.6476C8.70814 22.6274 8.70993 22.6057 8.71895 22.5869C8.72427 22.5747 8.73231 22.564 8.74239 22.5557C8.87364 22.4524 9.00489 22.3442 9.12989 22.236C9.14093 22.2266 9.15418 22.2206 9.16821 22.2186C9.18225 22.2166 9.19655 22.2186 9.20957 22.2245C13.3017 24.1858 17.7314 24.1858 21.7735 22.2245C21.787 22.2183 21.8018 22.2162 21.8164 22.2182C21.831 22.2202 21.8448 22.2264 21.8563 22.236C21.9813 22.3442 22.1126 22.4524 22.2438 22.5557C22.2544 22.5639 22.263 22.5747 22.2687 22.5872C22.2744 22.5996 22.277 22.6134 22.2764 22.6272C22.2758 22.641 22.2719 22.6544 22.2651 22.6663C22.2584 22.6781 22.2489 22.688 22.2376 22.6951C21.6142 23.0765 20.9614 23.4024 20.286 23.6692C20.2752 23.6733 20.2655 23.6798 20.2574 23.6883C20.2493 23.6968 20.243 23.7071 20.2391 23.7184C20.2355 23.7294 20.2341 23.741 20.2349 23.7525C20.2357 23.7641 20.2387 23.7754 20.2438 23.7856C20.6188 24.5482 21.0485 25.2763 21.5204 25.965C21.5299 25.9793 21.5435 25.99 21.5593 25.9957C21.575 26.0013 21.592 26.0014 21.6079 25.9962C23.856 25.2731 25.9701 24.1528 27.8594 22.6836C27.8688 22.6768 27.8767 22.6677 27.8824 22.6572C27.8881 22.6467 27.8914 22.635 27.8922 22.623C28.4141 16.9637 27.0188 12.0474 24.1954 7.69022C24.1925 7.68302 24.1883 7.67653 24.1829 7.67116C24.1775 7.66579 24.1711 7.66167 24.1641 7.65906ZM11.3549 19.6417C10.1221 19.6417 9.10801 18.4544 9.10801 16.9982C9.10801 15.5403 10.1033 14.353 11.3549 14.353C12.6158 14.353 13.6205 15.5502 13.6017 16.9982C13.6017 18.4544 12.6064 19.6417 11.3549 19.6417ZM19.661 19.6417C18.4298 19.6417 17.4142 18.4544 17.4142 16.9982C17.4142 15.5403 18.4095 14.353 19.661 14.353C20.922 14.353 21.9282 15.5502 21.9079 16.9982C21.9079 18.4544 20.922 19.6417 19.661 19.6417Z"
        />
    </g>
    <g id="email">
        <path d="M5.07187 9.20292C5.2168 8.57709 5.57307 8.01832 6.08232 7.6181C6.59158 7.21789 7.22365 6.99996 7.875 7H25.125C25.7764 6.99996 26.4084 7.21789 26.9177 7.6181C27.4269 8.01832 27.7832 8.57709 27.9281 9.20292L16.5 16.0865L5.07187 9.20292ZM5 10.8207V20.8847L13.3418 15.8442L5 10.8207ZM14.7189 16.6758L5.27456 22.3807C5.50791 22.8657 5.87619 23.2753 6.33656 23.5619C6.79693 23.8486 7.33044 24.0005 7.875 24H25.125C25.6695 24.0001 26.2028 23.8479 26.6629 23.561C27.123 23.274 27.491 22.8643 27.724 22.3793L18.2796 16.6744L16.5 17.7468L14.7189 16.6744V16.6758ZM19.6582 15.8457L28 20.8847V10.8207L19.6582 15.8442V15.8457Z"
        />
    </g>
    <g id="telegram">
        <path d="m20.665 3.717-17.73 6.837c-1.21.486-1.203 1.161-.222 1.462l4.552 1.42 10.532-6.645c.498-.303.953-.14.579.192l-8.533 7.701h-.002l.002.001-.314 4.692c.46 0 .663-.211.921-.46l2.211-2.15 4.599 3.397c.848.467 1.457.227 1.668-.785l3.019-14.228c.309-1.239-.473-1.8-1.282-1.434z"/>
    </g>
    <g id="github">
        <path d="M15.5 6C9.69875 6 5 10.5882 5 16.2529C5 20.7899 8.00562 24.6219 12.1794 25.9804C12.7044 26.0701 12.9012 25.7625 12.9012 25.4934C12.9012 25.2499 12.8881 24.4425 12.8881 23.5838C10.25 24.058 9.5675 22.9558 9.3575 22.3791C9.23938 22.0843 8.7275 21.1743 8.28125 20.9308C7.91375 20.7386 7.38875 20.2644 8.26813 20.2516C9.095 20.2388 9.68563 20.9949 9.8825 21.3025C10.8275 22.8533 12.3369 22.4175 12.9406 22.1484C13.0325 21.4819 13.3081 21.0334 13.61 20.777C11.2737 20.5207 8.8325 19.6364 8.8325 15.7147C8.8325 14.5997 9.23938 13.6769 9.90875 12.9592C9.80375 12.7029 9.43625 11.6519 10.0138 10.2422C10.0138 10.2422 10.8931 9.97301 12.9012 11.2931C13.7413 11.0624 14.6338 10.947 15.5263 10.947C16.4188 10.947 17.3113 11.0624 18.1513 11.2931C20.1594 9.9602 21.0387 10.2422 21.0387 10.2422C21.6163 11.6519 21.2488 12.7029 21.1438 12.9592C21.8131 13.6769 22.22 14.5868 22.22 15.7147C22.22 19.6492 19.7656 20.5207 17.4294 20.777C17.81 21.0975 18.1381 21.7126 18.1381 22.6738C18.1381 24.0452 18.125 25.1474 18.125 25.4934C18.125 25.7625 18.3219 26.0829 18.8469 25.9804C20.9314 25.2935 22.7428 23.9854 24.026 22.2403C25.3092 20.4953 25.9996 18.4012 26 16.2529C26 10.5882 21.3013 6 15.5 6Z"
        />
    </g>
    <g id="arrowTop">
        <path xmlns="http://www.w3.org/2000/svg" d="m15.3 1.3-10 11c-.7.8.1 1.9 1 1.6l5.7-1.7v17.8c0 .6.4 1 1 1h6c.6 0 1-.4 1-1v-17.8l5.7 1.7c1 .3 1.7-.9 1-1.6l-10-11c-.4-.4-1-.4-1.4 0zm2.7 27.7h-4v-17.4l2-.6 2 .6zm4.8-18-6.8-2-6.8 2 6.8-7.5z"/>
    </g>
</svg>
